# xmcd
#
# Track frame offsets: 
#        151
#        13912
#        27369
#        37678
#        53961
#        67092
#        77681
#        97546
#        112505
#        123959
#        140897
#        151187
#        163907
#        179982
#        201268
#        210542
#        222652
#        230343
#        258342
#        276217
#        287464
#
# Disc length: 4043 seconds
#
# Revision: 1
# Processed by: cddbd v1.5.1PL0 Copyright (c) Steve Scherf et al.
# Submitted via: ExactAudioCopy v0.95a5
#
DISCID=2d0fc915
DTITLE=103rd Street Gospel Choir with Pat Lewis - Gospel - Down By The
DTITLE=Riverside
DYEAR=2000
DGENRE=Gospel
TTITLE0=Down By The Riverside
TTITLE1=To My FatherS House
TTITLE2=Get On Board (Gospel Train)
TTITLE3=Deep River
TTITLE4=Tell It On The Mountain
TTITLE5=Help Me To Help Him
TTITLE6=I'll Go
TTITLE7=Said He Would
TTITLE8=Burying Ground
TTITLE9=Yield Not To Temptation
TTITLE10=Motherless Children
TTITLE11=I Believe
TTITLE12=Jesus Lover Of My Soul
TTITLE13=Nobody Knows The Trouble I've Seen
TTITLE14=You're Gonna Need Somebody
TTITLE15=Wake Up What's Happening
TTITLE16=It's Me Oh Lord
TTITLE17=Precious Lord Take My Hand
TTITLE18=There Is A Green Hill
TTITLE19=Ol' Man River
TTITLE20=Bonus Track
EXTD=
EXTT0=
EXTT1=
EXTT2=
EXTT3=
EXTT4=
EXTT5=
EXTT6=
EXTT7=
EXTT8=
EXTT9=
EXTT10=
EXTT11=
EXTT12=
EXTT13=
EXTT14=
EXTT15=
EXTT16=
EXTT17=
EXTT18=
EXTT19=
EXTT20=
PLAYORDER=
